<mxfile host="Electron" modified="2022-10-30T21:35:15.605Z" agent="5.0 (Macintosh; Intel Mac OS X 10_15_7) AppleWebKit/537.36 (KHTML, like Gecko) draw.io/20.3.0 Chrome/104.0.5112.114 Electron/20.1.3 Safari/537.36" etag="n9FkFFslp5aqsUyiJwY_" compressed="false" version="20.3.0" type="device">
  <diagram name="Page-1" id="9f46799a-70d6-7492-0946-bef42562c5a5">
    <mxGraphModel dx="946" dy="599" grid="1" gridSize="10" guides="1" tooltips="1" connect="1" arrows="1" fold="1" page="1" pageScale="1" pageWidth="1100" pageHeight="850" background="none" math="0" shadow="0">
      <root>
        <mxCell id="0" />
        <mxCell id="1" parent="0" />
        <mxCell id="GSSDi0KNIpRahHeWXHaw-2" value="" style="html=1;shadow=1;" parent="1" vertex="1">
          <mxGeometry x="351" y="180" width="60" height="130" as="geometry" />
        </mxCell>
        <mxCell id="GSSDi0KNIpRahHeWXHaw-3" value="" style="html=1;shadow=1;" parent="1" vertex="1">
          <mxGeometry x="500" y="181" width="100" height="60" as="geometry" />
        </mxCell>
        <mxCell id="GSSDi0KNIpRahHeWXHaw-5" value="" style="html=1;shadow=1;" parent="1" vertex="1">
          <mxGeometry x="500" y="280" width="100" height="30" as="geometry" />
        </mxCell>
        <mxCell id="GSSDi0KNIpRahHeWXHaw-7" value="" style="group" parent="1" vertex="1" connectable="0">
          <mxGeometry x="120" y="180" width="180" height="130" as="geometry" />
        </mxCell>
        <mxCell id="GSSDi0KNIpRahHeWXHaw-1" value="" style="html=1;shadow=1;" parent="GSSDi0KNIpRahHeWXHaw-7" vertex="1">
          <mxGeometry width="180" height="130" as="geometry" />
        </mxCell>
        <mxCell id="GSSDi0KNIpRahHeWXHaw-6" value="" style="html=1;shadow=1;" parent="GSSDi0KNIpRahHeWXHaw-7" vertex="1">
          <mxGeometry x="70" y="70" width="100" height="50" as="geometry" />
        </mxCell>
        <mxCell id="GSSDi0KNIpRahHeWXHaw-12" value="HTML" style="text;html=1;strokeColor=none;fillColor=none;align=center;verticalAlign=middle;whiteSpace=wrap;rounded=0;shadow=1;" parent="GSSDi0KNIpRahHeWXHaw-7" vertex="1">
          <mxGeometry x="70" width="40" height="30" as="geometry" />
        </mxCell>
        <mxCell id="GSSDi0KNIpRahHeWXHaw-13" value="HTML&lt;br&gt;Fragment" style="text;html=1;strokeColor=none;fillColor=none;align=center;verticalAlign=middle;whiteSpace=wrap;rounded=0;shadow=1;" parent="GSSDi0KNIpRahHeWXHaw-7" vertex="1">
          <mxGeometry x="100" y="80" width="40" height="30" as="geometry" />
        </mxCell>
        <mxCell id="GSSDi0KNIpRahHeWXHaw-9" value="Java Action" style="text;html=1;strokeColor=none;fillColor=none;align=center;verticalAlign=middle;whiteSpace=wrap;rounded=0;shadow=1;" parent="1" vertex="1">
          <mxGeometry x="505" y="195" width="90" height="30" as="geometry" />
        </mxCell>
        <mxCell id="GSSDi0KNIpRahHeWXHaw-10" value="JSP" style="text;html=1;strokeColor=none;fillColor=none;align=center;verticalAlign=middle;whiteSpace=wrap;rounded=0;shadow=1;" parent="1" vertex="1">
          <mxGeometry x="508" y="280" width="90" height="30" as="geometry" />
        </mxCell>
        <mxCell id="GSSDi0KNIpRahHeWXHaw-17" style="edgeStyle=none;rounded=0;orthogonalLoop=1;jettySize=auto;html=1;entryX=0;entryY=0.25;entryDx=0;entryDy=0;exitX=0.996;exitY=0.125;exitDx=0;exitDy=0;exitPerimeter=0;dashed=1;" parent="1" source="GSSDi0KNIpRahHeWXHaw-2" target="GSSDi0KNIpRahHeWXHaw-3" edge="1">
          <mxGeometry relative="1" as="geometry">
            <mxPoint x="440" y="200" as="sourcePoint" />
          </mxGeometry>
        </mxCell>
        <mxCell id="GSSDi0KNIpRahHeWXHaw-11" value="JS" style="text;html=1;strokeColor=none;fillColor=none;align=center;verticalAlign=middle;whiteSpace=wrap;rounded=0;shadow=1;" parent="1" vertex="1">
          <mxGeometry x="370" y="190" width="22" height="30" as="geometry" />
        </mxCell>
        <mxCell id="GSSDi0KNIpRahHeWXHaw-14" value="" style="orthogonalLoop=1;jettySize=auto;html=1;rounded=0;exitX=1.006;exitY=0.2;exitDx=0;exitDy=0;exitPerimeter=0;entryX=-0.017;entryY=0.192;entryDx=0;entryDy=0;entryPerimeter=0;dashed=1;" parent="1" source="GSSDi0KNIpRahHeWXHaw-1" target="GSSDi0KNIpRahHeWXHaw-2" edge="1">
          <mxGeometry width="80" relative="1" as="geometry">
            <mxPoint x="550" y="290" as="sourcePoint" />
            <mxPoint x="630" y="290" as="targetPoint" />
          </mxGeometry>
        </mxCell>
        <mxCell id="GSSDi0KNIpRahHeWXHaw-15" value="" style="orthogonalLoop=1;jettySize=auto;html=1;rounded=0;exitX=0;exitY=0.75;exitDx=0;exitDy=0;entryX=1.007;entryY=0.57;entryDx=0;entryDy=0;dashed=1;entryPerimeter=0;" parent="1" source="GSSDi0KNIpRahHeWXHaw-2" target="GSSDi0KNIpRahHeWXHaw-6" edge="1">
          <mxGeometry width="80" relative="1" as="geometry">
            <mxPoint x="311.0799999999999" y="216" as="sourcePoint" />
            <mxPoint x="378.98" y="214.96000000000004" as="targetPoint" />
          </mxGeometry>
        </mxCell>
        <mxCell id="GSSDi0KNIpRahHeWXHaw-16" value="" style="orthogonalLoop=1;jettySize=auto;html=1;rounded=0;exitX=0.001;exitY=0.722;exitDx=0;exitDy=0;entryX=1.033;entryY=0.346;entryDx=0;entryDy=0;entryPerimeter=0;dashed=1;exitPerimeter=0;" parent="1" source="GSSDi0KNIpRahHeWXHaw-3" target="GSSDi0KNIpRahHeWXHaw-2" edge="1">
          <mxGeometry width="80" relative="1" as="geometry">
            <mxPoint x="388.99999999999994" y="245.52" as="sourcePoint" />
            <mxPoint x="456.90000000000003" y="244.48000000000005" as="targetPoint" />
          </mxGeometry>
        </mxCell>
        <mxCell id="GSSDi0KNIpRahHeWXHaw-18" value="" style="orthogonalLoop=1;jettySize=auto;html=1;rounded=0;entryX=1.038;entryY=0.885;entryDx=0;entryDy=0;entryPerimeter=0;dashed=1;" parent="1" target="GSSDi0KNIpRahHeWXHaw-2" edge="1">
          <mxGeometry width="80" relative="1" as="geometry">
            <mxPoint x="500" y="295" as="sourcePoint" />
            <mxPoint x="436.98" y="294.81999999999994" as="targetPoint" />
          </mxGeometry>
        </mxCell>
        <mxCell id="GSSDi0KNIpRahHeWXHaw-19" value="" style="orthogonalLoop=1;jettySize=auto;html=1;rounded=0;exitX=0.5;exitY=1;exitDx=0;exitDy=0;entryX=0.467;entryY=0;entryDx=0;entryDy=0;entryPerimeter=0;" parent="1" source="GSSDi0KNIpRahHeWXHaw-3" target="GSSDi0KNIpRahHeWXHaw-10" edge="1">
          <mxGeometry width="80" relative="1" as="geometry">
            <mxPoint x="510" y="235" as="sourcePoint" />
            <mxPoint x="441.98" y="234.97999999999996" as="targetPoint" />
          </mxGeometry>
        </mxCell>
        <mxCell id="GSSDi0KNIpRahHeWXHaw-20" style="edgeStyle=none;rounded=0;orthogonalLoop=1;jettySize=auto;html=1;entryX=-0.032;entryY=0.464;entryDx=0;entryDy=0;exitX=1;exitY=0.5;exitDx=0;exitDy=0;entryPerimeter=0;startArrow=classic;startFill=1;dashed=1;" parent="1" source="GSSDi0KNIpRahHeWXHaw-3" target="GSSDi0KNIpRahHeWXHaw-4" edge="1">
          <mxGeometry relative="1" as="geometry">
            <mxPoint x="620" y="210.55999999999995" as="sourcePoint" />
            <mxPoint x="689.52" y="209.44" as="targetPoint" />
          </mxGeometry>
        </mxCell>
        <mxCell id="GSSDi0KNIpRahHeWXHaw-21" value="AJAX" style="text;html=1;strokeColor=none;fillColor=none;align=center;verticalAlign=middle;whiteSpace=wrap;rounded=0;shadow=1;" parent="1" vertex="1">
          <mxGeometry x="420" y="150" width="60" height="30" as="geometry" />
        </mxCell>
        <mxCell id="GSSDi0KNIpRahHeWXHaw-22" value="OK/Error" style="text;html=1;strokeColor=none;fillColor=none;align=center;verticalAlign=middle;whiteSpace=wrap;rounded=0;shadow=1;" parent="1" vertex="1">
          <mxGeometry x="408" y="218" width="100" height="40" as="geometry" />
        </mxCell>
        <mxCell id="GSSDi0KNIpRahHeWXHaw-23" value="Read" style="text;html=1;strokeColor=none;fillColor=none;align=center;verticalAlign=middle;whiteSpace=wrap;rounded=0;shadow=1;" parent="1" vertex="1">
          <mxGeometry x="405" y="295" width="100" height="20" as="geometry" />
        </mxCell>
        <mxCell id="GSSDi0KNIpRahHeWXHaw-24" value="" style="group" parent="1" vertex="1" connectable="0">
          <mxGeometry x="650" y="183" width="70" height="60" as="geometry" />
        </mxCell>
        <mxCell id="GSSDi0KNIpRahHeWXHaw-4" value="" style="strokeWidth=2;html=1;shape=mxgraph.flowchart.database;whiteSpace=wrap;shadow=1;" parent="GSSDi0KNIpRahHeWXHaw-24" vertex="1">
          <mxGeometry width="70" height="60" as="geometry" />
        </mxCell>
        <mxCell id="GSSDi0KNIpRahHeWXHaw-8" value="MySQL DB" style="text;html=1;strokeColor=none;fillColor=none;align=center;verticalAlign=middle;whiteSpace=wrap;rounded=0;shadow=1;" parent="GSSDi0KNIpRahHeWXHaw-24" vertex="1">
          <mxGeometry x="6" y="23" width="60" height="30" as="geometry" />
        </mxCell>
      </root>
    </mxGraphModel>
  </diagram>
</mxfile>
